<?xml version="1.0" encoding="UTF-8"?>
<svg xmlns="http://www.w3.org/2000/svg" xmlns:xlink="http://www.w3.org/1999/xlink" width="36px" height="36px" viewBox="0 0 36 36" version="1.1">
<defs>
<filter id="alpha" filterUnits="objectBoundingBox" x="0%" y="0%" width="100%" height="100%">
  <feColorMatrix type="matrix" in="SourceGraphic" values="0 0 0 0 1 0 0 0 0 1 0 0 0 0 1 0 0 0 1 0"/>
</filter>
<mask id="mask0">
  <g filter="url(#alpha)">
<rect x="0" y="0" width="36" height="36" style="fill:rgb(0%,0%,0%);fill-opacity:0.301961;stroke:none;"/>
  </g>
</mask>
<clipPath id="clip1">
  <rect x="0" y="0" width="36" height="36"/>
</clipPath>
<g id="surface5" clip-path="url(#clip1)">
<path style=" stroke:none;fill-rule:nonzero;fill:rgb(12.54902%,15.294118%,18.039216%);fill-opacity:1;" d="M 21.996094 29.78125 C 21.605469 29.78125 21.226562 29.859375 20.863281 30.015625 L 19.875 30.433594 C 19.566406 30.300781 19.230469 30.226562 18.886719 30.226562 L 17.113281 30.226562 C 16.769531 30.226562 16.433594 30.300781 16.125 30.433594 L 15.136719 30.015625 C 14.773438 29.859375 14.394531 29.78125 14.003906 29.78125 C 12.414062 29.78125 11.117188 31.078125 11.117188 32.671875 L 11.117188 33.214844 C 11.578125 33.371094 12.050781 33.488281 12.539062 33.570312 L 23.460938 33.570312 L 23.460938 32.765625 L 23.460938 33.570312 C 23.949219 33.488281 24.421875 33.371094 24.882812 33.214844 L 24.882812 32.671875 C 24.882812 31.078125 23.585938 29.78125 21.996094 29.78125 Z M 21.996094 29.78125 "/>
</g>
<mask id="mask1">
  <g filter="url(#alpha)">
<rect x="0" y="0" width="36" height="36" style="fill:rgb(0%,0%,0%);fill-opacity:0.301961;stroke:none;"/>
  </g>
</mask>
<clipPath id="clip2">
  <rect x="0" y="0" width="36" height="36"/>
</clipPath>
<g id="surface8" clip-path="url(#clip2)">
<path style=" stroke:none;fill-rule:nonzero;fill:rgb(12.54902%,15.294118%,18.039216%);fill-opacity:1;" d="M 31.542969 18.195312 L 31.257812 18.195312 L 31.257812 13.238281 C 31.257812 12.722656 31.226562 12.210938 31.167969 11.707031 L 31.167969 11.703125 C 31.164062 11.699219 31.164062 11.699219 31.164062 11.695312 C 31.089844 11.054688 30.96875 10.425781 30.804688 9.8125 C 29.289062 4.160156 24.128906 0 18 0 L 18 35.554688 L 18.886719 35.554688 C 19.21875 35.554688 19.519531 35.398438 19.714844 35.15625 L 21.421875 35.882812 C 22.386719 36.292969 23.460938 35.582031 23.460938 34.53125 L 23.460938 33.570312 C 27.859375 32.84375 31.222656 29.042969 31.253906 24.445312 L 31.542969 24.445312 C 33.265625 24.445312 34.667969 23.046875 34.667969 21.320312 C 34.667969 19.59375 33.265625 18.195312 31.542969 18.195312 Z M 31.542969 18.195312 "/>
</g>
</defs>
<g id="surface1">
<path style=" stroke:none;fill-rule:nonzero;fill:rgb(0%,58.823529%,60.784314%);fill-opacity:1;" d="M 4.457031 18.195312 C 2.734375 18.195312 1.332031 19.59375 1.332031 21.320312 C 1.332031 23.046875 2.734375 24.445312 4.457031 24.445312 L 5.691406 24.445312 L 5.691406 18.195312 Z M 4.457031 18.195312 "/>
<path style=" stroke:none;fill-rule:nonzero;fill:rgb(0%,58.823529%,60.784314%);fill-opacity:1;" d="M 31.542969 18.195312 L 30.308594 18.195312 L 30.308594 24.445312 L 31.542969 24.445312 C 33.265625 24.445312 34.667969 23.046875 34.667969 21.320312 C 34.667969 19.59375 33.265625 18.195312 31.542969 18.195312 Z M 31.542969 18.195312 "/>
<path style=" stroke:none;fill-rule:nonzero;fill:rgb(0%,84.705882%,87.058824%);fill-opacity:1;" d="M 31.167969 11.707031 L 31.167969 11.703125 C 31.164062 11.695312 31.160156 11.691406 31.15625 11.683594 C 31.078125 11.0625 30.964844 10.449219 30.804688 9.859375 C 29.289062 4.207031 24.128906 2.886719 18 2.886719 C 11.871094 2.886719 6.710938 4.207031 5.195312 9.859375 L 5.183594 9.898438 C 5.03125 10.476562 4.917969 11.074219 4.84375 11.683594 C 4.839844 11.691406 4.835938 11.695312 4.832031 11.703125 C 4.773438 12.207031 4.742188 12.71875 4.742188 13.238281 L 4.742188 24.375 C 4.742188 29.003906 8.117188 32.839844 12.539062 33.570312 L 23.460938 33.570312 L 23.460938 32.765625 L 23.460938 33.570312 C 27.882812 32.839844 31.257812 29.003906 31.257812 24.375 L 31.257812 13.242188 C 31.257812 12.722656 31.226562 12.210938 31.167969 11.707031 Z M 31.167969 11.707031 "/>
<path style=" stroke:none;fill-rule:nonzero;fill:rgb(11.764706%,14.509804%,16.862745%);fill-opacity:1;" d="M 12.859375 21.101562 C 12.859375 21.753906 12.328125 22.285156 11.675781 22.285156 C 11.023438 22.285156 10.492188 21.753906 10.492188 21.101562 C 10.492188 20.445312 11.023438 19.917969 11.675781 19.917969 C 12.328125 19.917969 12.859375 20.445312 12.859375 21.101562 Z M 12.859375 21.101562 "/>
<path style=" stroke:none;fill-rule:nonzero;fill:rgb(11.764706%,14.509804%,16.862745%);fill-opacity:1;" d="M 25.507812 21.101562 C 25.507812 21.753906 24.976562 22.285156 24.324219 22.285156 C 23.671875 22.285156 23.140625 21.753906 23.140625 21.101562 C 23.140625 20.445312 23.671875 19.917969 24.324219 19.917969 C 24.976562 19.917969 25.507812 20.445312 25.507812 21.101562 Z M 25.507812 21.101562 "/>
<path style=" stroke:none;fill-rule:nonzero;fill:rgb(23.529412%,22.745098%,25.490196%);fill-opacity:1;" d="M 18 11.882812 C 18 11.882812 26.644531 3.617188 31.167969 11.71875 C 31.089844 11.070312 30.96875 10.429688 30.804688 9.8125 C 29.289062 4.160156 24.128906 0 18 0 C 11.871094 0 6.710938 4.160156 5.195312 9.8125 L 5.183594 9.851562 C 5.023438 10.457031 4.90625 11.082031 4.832031 11.71875 C 9.355469 3.613281 18 11.882812 18 11.882812 Z M 18 11.882812 "/>
<use xlink:href="#surface5" mask="url(#mask0)"/>
<path style=" stroke:none;fill-rule:nonzero;fill:rgb(12.54902%,15.294118%,18.039216%);fill-opacity:1;" d="M 22.167969 23.375 C 22.167969 25.675781 20.300781 27.539062 18 27.539062 C 15.699219 27.539062 13.832031 25.675781 13.832031 23.375 Z M 22.167969 23.375 "/>
<path style=" stroke:none;fill-rule:nonzero;fill:rgb(100%,100%,100%);fill-opacity:1;" d="M 15.582031 23.375 L 15.582031 24.480469 C 15.582031 24.871094 15.902344 25.191406 16.292969 25.191406 C 16.683594 25.191406 17.003906 24.871094 17.003906 24.480469 L 17.003906 23.375 Z M 15.582031 23.375 "/>
<path style=" stroke:none;fill-rule:nonzero;fill:rgb(100%,100%,100%);fill-opacity:1;" d="M 18.996094 23.375 L 18.996094 24.480469 C 18.996094 24.871094 19.316406 25.191406 19.707031 25.191406 C 20.097656 25.191406 20.417969 24.871094 20.417969 24.480469 L 20.417969 23.375 Z M 18.996094 23.375 "/>
<path style=" stroke:none;fill-rule:nonzero;fill:rgb(100%,23.529412%,38.823529%);fill-opacity:1;" d="M 16.285156 35.15625 L 16.285156 32.046875 L 14.578125 31.320312 C 13.613281 30.910156 12.539062 31.621094 12.539062 32.671875 L 12.539062 34.53125 C 12.539062 35.582031 13.613281 36.292969 14.578125 35.882812 Z M 16.285156 35.15625 "/>
<path style=" stroke:none;fill-rule:nonzero;fill:rgb(100%,23.529412%,38.823529%);fill-opacity:1;" d="M 21.421875 31.320312 L 19.714844 32.046875 L 19.714844 35.15625 L 21.421875 35.882812 C 22.386719 36.292969 23.460938 35.582031 23.460938 34.53125 L 23.460938 32.671875 C 23.460938 31.621094 22.386719 30.910156 21.421875 31.320312 Z M 21.421875 31.320312 "/>
<path style=" stroke:none;fill-rule:nonzero;fill:rgb(100%,45.098039%,55.294118%);fill-opacity:1;" d="M 18.886719 31.648438 L 17.113281 31.648438 C 16.523438 31.648438 16.046875 32.125 16.046875 32.714844 L 16.046875 34.488281 C 16.046875 35.074219 16.523438 35.554688 17.113281 35.554688 L 18.886719 35.554688 C 19.472656 35.554688 19.953125 35.074219 19.953125 34.488281 L 19.953125 32.714844 C 19.953125 32.125 19.476562 31.648438 18.886719 31.648438 Z M 18.886719 31.648438 "/>
<use xlink:href="#surface8" mask="url(#mask1)"/>
</g>
</svg>
